#define clock_width 10
#define clock_height 10
static unsigned char clock_bits[] = {
   0x00, 0x00, 0xfe, 0x01, 0xfe, 0x01, 0xee, 0x01, 0xee, 0x01, 0x8e, 0x01,
   0xfe, 0x01, 0xfe, 0x01, 0xfe, 0x01, 0x00, 0x00 };
