#define full_width 10
#define full_height 10
static unsigned char full_bits[] = {
   0x00, 0x00, 0xfe, 0x01, 0xfe, 0x01, 0xfe, 0x01, 0xfe, 0x01, 0xfe, 0x01,
   0xfe, 0x01, 0xfe, 0x01, 0xfe, 0x01, 0x00, 0x00 };
