#define half_width 10
#define half_height 10
static unsigned char half_bits[] = {
   0x00, 0x00, 0xfe, 0x01, 0x02, 0x01, 0x7a, 0x01, 0x7a, 0x01, 0x7a, 0x01,
   0x7a, 0x01, 0x02, 0x01, 0xfe, 0x01, 0x00, 0x00 };
