#define music_width 10
#define music_height 10
static unsigned char music_bits[] = {
   0x00, 0x00, 0xf8, 0x01, 0xf8, 0x01, 0x08, 0x01, 0x08, 0x01, 0x08, 0x01,
   0x08, 0x01, 0xce, 0x01, 0xce, 0x01, 0x00, 0x00 };
