#define next_width 10
#define next_height 10
static unsigned char next_bits[] = {
   0x00, 0x00, 0x06, 0x00, 0x1e, 0x01, 0x7e, 0x01, 0xfe, 0x01, 0xfe, 0x01,
   0x7e, 0x01, 0x1e, 0x01, 0x06, 0x00, 0x00, 0x00 };
