#define power_width 10
#define power_height 10
static unsigned char power_bits[] = {
   0x30, 0x00, 0xb6, 0x01, 0xb6, 0x01, 0xb6, 0x01, 0xb6, 0x01, 0x86, 0x01,
   0x86, 0x01, 0xfe, 0x01, 0xfe, 0x01, 0x00, 0x00 };
