#define prev_width 10
#define prev_height 10
static unsigned char prev_bits[] = {
   0x00, 0x00, 0x80, 0x01, 0xe2, 0x01, 0xfa, 0x01, 0xfe, 0x01, 0xfe, 0x01,
   0xfa, 0x01, 0xe2, 0x01, 0x80, 0x01, 0x00, 0x00 };
