#define spkr_01_width 10
#define spkr_01_height 10
static unsigned char spkr_01_bits[] = {
   0x00, 0x00, 0x10, 0x00, 0x18, 0x01, 0x1e, 0x01, 0x5e, 0x01, 0x5e, 0x01,
   0x1e, 0x01, 0x18, 0x01, 0x10, 0x00, 0x00, 0x00 };
