#define wm_full_width 12
#define wm_full_height 12
static unsigned char wm_full_bits[] = {
   0x00, 0x00, 0x07, 0x0e, 0x03, 0x0c, 0xfd, 0x0b, 0x04, 0x02, 0x04, 0x02,
   0x04, 0x02, 0x04, 0x02, 0xfd, 0x0b, 0x03, 0x0c, 0x07, 0x0e, 0x00, 0x00 };
