#define wm_tall_width 12
#define wm_tall_height 12
static unsigned char wm_tall_bits[] = {
   0x00, 0x00, 0xff, 0x0f, 0x21, 0x08, 0x21, 0x08, 0x21, 0x08, 0xe1, 0x0f,
   0x21, 0x08, 0x21, 0x08, 0x21, 0x08, 0x21, 0x08, 0xff, 0x0f, 0x00, 0x00 };
