<?xml version="1.0" encoding="UTF-8" standalone="no"?>
<!-- Generated by IcoMoon.io -->

<svg
   xmlns:dc="http://purl.org/dc/elements/1.1/"
   xmlns:cc="http://creativecommons.org/ns#"
   xmlns:rdf="http://www.w3.org/1999/02/22-rdf-syntax-ns#"
   xmlns:svg="http://www.w3.org/2000/svg"
   xmlns="http://www.w3.org/2000/svg"
   xmlns:sodipodi="http://sodipodi.sourceforge.net/DTD/sodipodi-0.dtd"
   xmlns:inkscape="http://www.inkscape.org/namespaces/inkscape"
   version="1.1"
   width="96"
   height="96"
   viewBox="0 0 96 96"
   id="svg2"
   inkscape:version="0.91 r13725"
   sodipodi:docname="apps.svg">
  <metadata
     id="metadata14">
    <rdf:RDF>
      <cc:Work
         rdf:about="">
        <dc:format>image/svg+xml</dc:format>
        <dc:type
           rdf:resource="http://purl.org/dc/dcmitype/StillImage" />
      </cc:Work>
    </rdf:RDF>
  </metadata>
  <defs
     id="defs12" />
  <sodipodi:namedview
     pagecolor="#ffffff"
     bordercolor="#666666"
     borderopacity="1"
     objecttolerance="10"
     gridtolerance="10"
     guidetolerance="10"
     inkscape:pageopacity="0"
     inkscape:pageshadow="2"
     inkscape:window-width="1083"
     inkscape:window-height="944"
     id="namedview10"
     showgrid="true"
     inkscape:zoom="0.61458335"
     inkscape:cx="61.137279"
     inkscape:cy="99.232904"
     inkscape:window-x="793"
     inkscape:window-y="92"
     inkscape:window-maximized="0"
     inkscape:current-layer="svg2"
     inkscape:snap-page="true">
    <inkscape:grid
       type="xygrid"
       id="grid4144" />
  </sodipodi:namedview>
  <rect
     style="opacity:0.5;fill:#000000;fill-opacity:1;fill-rule:evenodd;stroke:none;stroke-width:5;stroke-linecap:round;stroke-linejoin:round;stroke-miterlimit:4;stroke-dasharray:none;stroke-opacity:1"
     id="rect4142"
     width="101.89657"
     height="96"
     x="0"
     y="0"
     ry="6" />
  <g
     id="g4">
    <line
       stroke-width="1"
       x1=""
       y1=""
       x2=""
       y2=""
       stroke="#449FDB"
       opacity=""
       id="line6" />
  </g>
  <path
     d="m 32.366894,37.183447 10.816553,0 0,-10.816553 -10.816553,0 0,10.816553 z m 16.22483,32.449659 10.816552,0 0,-10.816553 -10.816552,0 0,10.816553 z m -16.22483,0 10.816553,0 0,-10.816553 -10.816553,0 0,10.816553 z m 0,-16.22483 10.816553,0 0,-10.816552 -10.816553,0 0,10.816552 z m 16.22483,0 10.816552,0 0,-10.816552 -10.816552,0 0,10.816552 z m 16.224829,-27.041382 0,10.816553 10.816553,0 0,-10.816553 -10.816553,0 z m -16.224829,10.816553 10.816552,0 0,-10.816553 -10.816552,0 0,10.816553 z m 16.224829,16.224829 10.816553,0 0,-10.816552 -10.816553,0 0,10.816552 z m 0,16.22483 10.816553,0 0,-10.816553 -10.816553,0 0,10.816553 z"
     id="path8"
     style="fill:#ffffff;fill-opacity:1"
     inkscape:connector-curvature="0" />
</svg>
