<?xml version="1.0" encoding="UTF-8" standalone="no"?>
<!-- Generated by IcoMoon.io -->

<svg
   xmlns:dc="http://purl.org/dc/elements/1.1/"
   xmlns:cc="http://creativecommons.org/ns#"
   xmlns:rdf="http://www.w3.org/1999/02/22-rdf-syntax-ns#"
   xmlns:svg="http://www.w3.org/2000/svg"
   xmlns="http://www.w3.org/2000/svg"
   xmlns:sodipodi="http://sodipodi.sourceforge.net/DTD/sodipodi-0.dtd"
   xmlns:inkscape="http://www.inkscape.org/namespaces/inkscape"
   version="1.1"
   width="96"
   height="96"
   viewBox="0 0 96 96"
   id="svg4136"
   inkscape:version="0.91 r13725"
   sodipodi:docname="apps.svg">
  <metadata
     id="metadata4148">
    <rdf:RDF>
      <cc:Work
         rdf:about="">
        <dc:format>image/svg+xml</dc:format>
        <dc:type
           rdf:resource="http://purl.org/dc/dcmitype/StillImage" />
      </cc:Work>
    </rdf:RDF>
  </metadata>
  <defs
     id="defs4146" />
  <sodipodi:namedview
     pagecolor="#ffffff"
     bordercolor="#666666"
     borderopacity="1"
     objecttolerance="10"
     gridtolerance="10"
     guidetolerance="10"
     inkscape:pageopacity="0"
     inkscape:pageshadow="2"
     inkscape:window-width="1834"
     inkscape:window-height="944"
     id="namedview4144"
     showgrid="false"
     inkscape:zoom="4"
     inkscape:cx="52.105273"
     inkscape:cy="35.158803"
     inkscape:window-x="42"
     inkscape:window-y="92"
     inkscape:window-maximized="0"
     inkscape:current-layer="svg4136"
     inkscape:snap-page="true" />
  <g
     id="g4138">
    <line
       x1=""
       y1=""
       x2=""
       y2=""
       opacity=""
       id="line4140"
       stroke-width="1"
       stroke="#449FDB" />
  </g>
  <path
     d="m 27.219124,37.609562 10.390438,0 0,-10.390438 -10.390438,0 0,10.390438 z m 15.585657,31.171314 10.390438,0 0,-10.390438 -10.390438,0 0,10.390438 z m -15.585657,0 10.390438,0 0,-10.390438 -10.390438,0 0,10.390438 z m 0,-15.585657 10.390438,0 0,-10.390438 -10.390438,0 0,10.390438 z m 15.585657,0 10.390438,0 0,-10.390438 -10.390438,0 0,10.390438 z m 15.585657,-25.976095 0,10.390438 10.390438,0 0,-10.390438 -10.390438,0 z m -15.585657,10.390438 10.390438,0 0,-10.390438 -10.390438,0 0,10.390438 z m 15.585657,15.585657 10.390438,0 0,-10.390438 -10.390438,0 0,10.390438 z m 0,15.585657 10.390438,0 0,-10.390438 -10.390438,0 0,10.390438 z"
     id="path4142"
     inkscape:connector-curvature="0"
     style="fill:#ffffff;fill-opacity:1;opacity:0.75" />
</svg>
